HIERARCHY
ROOT Hips
{
	OFFSET 0.00000 0.00000 0.00000
	CHANNELS 6 Xposition Yposition Zposition Zrotation Yrotation Xrotation 
	JOINT LHipJoint
	{
		OFFSET 0 0 0
		CHANNELS 3 Zrotation Yrotation Xrotation
		JOINT LeftUpLeg
		{
			OFFSET 1.86795 -1.59681 0.65681
			CHANNELS 3 Zrotation Yrotation Xrotation
			JOINT LeftLeg
			{
				OFFSET 2.30491 -6.33268 0.00000
				CHANNELS 3 Zrotation Yrotation Xrotation
				JOINT LeftFoot
				{
					OFFSET 2.46780 -6.78022 0.00000
					CHANNELS 3 Zrotation Yrotation Xrotation
					JOINT LeftToeBase
					{
						OFFSET 0.07897 -0.21698 1.59652
						CHANNELS 3 Zrotation Yrotation Xrotation
						End Site
						{
							OFFSET 0.00000 -0.00000 0.82310
						}
					}
				}
			}
		}
	}
	JOINT RHipJoint
	{
		OFFSET 0 0 0
		CHANNELS 3 Zrotation Yrotation Xrotation
		JOINT RightUpLeg
		{
			OFFSET -1.93650 -1.59681 0.65681
			CHANNELS 3 Zrotation Yrotation Xrotation
			JOINT RightLeg
			{
				OFFSET -2.29410 -6.30299 0.00000
				CHANNELS 3 Zrotation Yrotation Xrotation
				JOINT RightFoot
				{
					OFFSET -2.48738 -6.83403 0.00000
					CHANNELS 3 Zrotation Yrotation Xrotation
					JOINT RightToeBase
					{
						OFFSET -0.08699 -0.23899 1.89395
						CHANNELS 3 Zrotation Yrotation Xrotation
						End Site
						{
							OFFSET -0.00000 -0.00000 0.96904
						}
					}
				}
			}
		}
	}
	JOINT LowerBack
	{
		OFFSET 0 0 0
		CHANNELS 3 Zrotation Yrotation Xrotation
		JOINT Spine
		{
			OFFSET 0.03629 1.99740 -0.07548
			CHANNELS 3 Zrotation Yrotation Xrotation
			JOINT Spine1
			{
				OFFSET 0.03970 1.94298 0.17218
				CHANNELS 3 Zrotation Yrotation Xrotation
				JOINT Neck
				{
					OFFSET 0 0 0
					CHANNELS 3 Zrotation Yrotation Xrotation
					JOINT Neck1
					{
						OFFSET -0.05054 1.79469 0.04241
						CHANNELS 3 Zrotation Yrotation Xrotation
						JOINT Head
						{
							OFFSET 0.05195 1.78475 -0.22133
							CHANNELS 3 Zrotation Yrotation Xrotation
							End Site
							{
								OFFSET 0.02420 1.80711 -0.07950
							}
						}
					}
				}
				JOINT LeftShoulder
				{
					OFFSET 0 0 0
					CHANNELS 3 Zrotation Yrotation Xrotation
					JOINT LeftArm
					{
						OFFSET 2.92134 1.19850 0.36056
						CHANNELS 3 Zrotation Yrotation Xrotation
						JOINT LeftForeArm
						{
							OFFSET 4.84137 -0.00000 0.00000
							CHANNELS 3 Zrotation Yrotation Xrotation
							JOINT LeftHand
							{
								OFFSET 3.24520 -0.00000 -0.00000
								CHANNELS 3 Zrotation Yrotation Xrotation
								JOINT LeftFingerBase
								{
									OFFSET 0 0 0
									CHANNELS 3 Zrotation Yrotation Xrotation
									JOINT LeftHandIndex1
									{
										OFFSET 0.52122 -0.00000 0.00000
										CHANNELS 3 Zrotation Yrotation Xrotation
										End Site
										{
											OFFSET 0.42022 -0.00000 0.00000
										}
									}
								}
								JOINT LThumb
								{
									OFFSET 0 0 0
									CHANNELS 3 Zrotation Yrotation Xrotation
									End Site
									{
										OFFSET 0.42664 -0.00000 0.42664
									}
								}
							}
						}
					}
				}
				JOINT RightShoulder
				{
					OFFSET 0 0 0
					CHANNELS 3 Zrotation Yrotation Xrotation
					JOINT RightArm
					{
						OFFSET -2.84327 1.20795 0.50191
						CHANNELS 3 Zrotation Yrotation Xrotation
						JOINT RightForeArm
						{
							OFFSET -4.72284 -0.00000 0.00000
							CHANNELS 3 Zrotation Yrotation Xrotation
							JOINT RightHand
							{
								OFFSET -3.23459 -0.00000 0.00000
								CHANNELS 3 Zrotation Yrotation Xrotation
								JOINT RightFingerBase
								{
									OFFSET 0 0 0
									CHANNELS 3 Zrotation Yrotation Xrotation
									JOINT RightHandIndex1
									{
										OFFSET -0.30742 -0.00000 0.00000
										CHANNELS 3 Zrotation Yrotation Xrotation
										End Site
										{
											OFFSET -0.24785 -0.00000 0.00000
										}
									}
								}
								JOINT RThumb
								{
									OFFSET 0 0 0
									CHANNELS 3 Zrotation Yrotation Xrotation
									End Site
									{
										OFFSET -0.25163 -0.00000 0.25163
									}
								}
							}
						}
					}
				}
			}
		}
	}
}
MOTION
Frames: 14
Frame Time: .0083333
27.0930 15.7361 -25.6846 -178.7990 -186.6210 -169.7890 0.0000 0.0000 0.0000 -19.7830 -17.7903 -16.2696 3.5422 11.5250 34.0716 1.0302 9.4210 -24.7535 0.9545 -6.2214 -17.4281 0.0000 0.0000 0.0000 3.3094 33.6571 -26.0704 -3.5375 -11.5182 34.0481 -0.1950 -17.0282 -25.8286 -0.5520 -4.7596 13.2241 4.0581 -0.0945 0.5114 1.9649 0.2913 -8.9903 -0.2024 -0.0817 -9.8032 -3.8082 1.9480 -13.4134 2.7214 2.9823 14.0834 1.7702 1.4701 6.3858 0.0000 -0.0000 0.0000 -92.7037 6.0952 54.4185 53.8192 -54.4243 -29.2532 -0.0000 -0.0000 53.9874 -34.7005 44.3603 -25.8332 -7.1250 0.0000 -0.0000 -79.4888 57.5469 -39.2038 0.0000 -0.0000 0.0000 88.0847 -5.5451 52.2946 -54.0960 54.5196 -29.4784 0.0000 0.0000 10.9875 -4.7155 16.2233 -1.3202 7.1250 -0.0000 -0.0000 15.3201 -14.0974 11.5558
27.0933 15.7440 -25.6792 -178.5340 -186.0530 -169.5970 0.0000 0.0000 0.0000 -20.1197 -17.5511 -16.2347 3.4703 11.4200 33.7099 0.9965 9.6577 -24.6751 0.9283 -6.1380 -17.1853 0.0000 0.0000 0.0000 2.8787 33.5314 -26.4464 -3.5158 -11.4866 33.9393 -0.0679 -17.5332 -25.4291 -0.3966 -4.0436 11.1993 3.9356 -0.1783 0.6116 1.8420 0.1686 -9.0875 -0.2517 -0.1421 -9.9749 -3.6945 2.0360 -13.4665 2.8891 3.0525 14.1805 1.8141 1.5237 6.4219 -0.0000 0.0000 0.0000 -92.5090 6.4347 55.5566 53.7063 -54.3852 -29.1614 -0.0000 -0.0000 54.5457 -32.1900 48.5737 -25.2672 -7.1250 0.0000 -0.0000 -83.9703 59.7402 -47.6407 -0.0000 0.0000 0.0000 88.0630 -5.7912 52.5215 -53.9974 54.4858 -29.3982 0.0000 0.0000 11.1682 -5.8396 17.6045 -1.7717 7.1250 -0.0000 -0.0000 14.5295 -12.6952 11.3611
27.0891 15.7510 -25.6759 -178.4560 -185.3860 -169.3920 0.0000 0.0000 0.0000 -20.2279 -17.2716 -16.2699 3.4047 11.3230 33.3772 0.9698 9.9282 -24.6840 0.9074 -6.0701 -16.9879 0.0000 0.0000 0.0000 2.6167 33.5763 -26.8932 -3.4970 -11.4591 33.8444 -0.0867 -17.2347 -25.1862 -0.4460 -4.2847 11.8789 3.8366 -0.1894 0.6753 1.8463 0.1527 -9.1661 -0.1888 -0.1447 -10.1013 -3.5899 2.0812 -13.4105 2.8619 3.0950 14.1130 1.7901 1.5478 6.3914 -0.0000 -0.0000 0.0000 -92.6957 6.3614 53.9707 53.1981 -54.2066 -28.7487 -0.0000 -0.0000 54.7399 -33.2843 45.1526 -24.9592 -7.1250 0.0000 -0.0000 -79.6257 58.2211 -40.5724 -0.0000 -0.0000 0.0000 87.9041 -5.9966 52.5939 -54.1286 54.5307 -29.5050 0.0000 0.0000 11.1154 -6.2088 18.4555 -1.9725 7.1250 -0.0000 -0.0000 14.2641 -11.8443 11.4004
27.0801 15.7557 -25.6712 -178.4590 -184.5260 -169.1850 0.0000 0.0000 0.0000 -20.2467 -16.9463 -16.3077 3.3457 11.2347 33.0756 0.9441 10.3045 -24.7953 0.8635 -5.9255 -16.5685 0.0000 0.0000 0.0000 2.3985 33.9430 -27.3681 -3.4830 -11.4387 33.7742 -0.2066 -16.6640 -25.4570 -0.6577 -5.1872 14.4433 3.6804 -0.1396 0.6556 1.9178 0.2133 -9.1813 -0.0310 -0.0995 -10.1035 -3.6559 2.1610 -13.3857 2.9818 3.1967 13.9647 1.8453 1.6046 6.3329 -0.0000 -0.0000 0.0000 -92.7433 6.4604 54.1630 52.8404 -54.0787 -28.4588 -0.0000 -0.0000 55.4845 -29.7476 45.1800 -22.0663 -7.1250 0.0000 -0.0000 -77.1655 59.1640 -39.8995 -0.0000 -0.0000 0.0000 87.8139 -6.1778 52.5230 -54.3482 54.6055 -29.6840 0.0000 0.0000 11.1709 -7.0771 18.7572 -2.2861 7.1250 -0.0000 -0.0000 13.6990 -11.4898 11.0235
27.0692 15.7608 -25.6663 -178.3520 -183.6500 -169.0390 0.0000 0.0000 0.0000 -20.4051 -16.6202 -16.2970 3.3027 11.1697 32.8544 0.9524 10.4688 -25.0034 0.7823 -5.6466 -15.7625 0.0000 0.0000 0.0000 2.1282 34.2609 -27.7479 -3.4635 -11.4100 33.6753 -0.2087 -16.5737 -25.3585 -0.7084 -5.3794 14.9938 3.4963 -0.1789 0.7571 1.9426 0.1563 -9.2562 0.1055 -0.1142 -10.2492 -3.7945 2.3248 -13.2748 3.2661 3.3972 13.9374 1.9738 1.7180 6.2896 -0.0000 -0.0000 0.0000 -92.8415 6.8151 53.6812 53.0184 -54.1426 -28.6030 -0.0000 -0.0000 55.5168 -29.3462 45.1090 -21.7181 -7.1250 0.0000 -0.0000 -76.7737 59.2415 -39.6700 -0.0000 -0.0000 0.0000 87.9042 -6.4880 52.6962 -54.3673 54.6119 -29.6995 0.0000 0.0000 11.9258 -9.2072 19.0220 -3.0242 7.1250 -0.0000 -0.0000 12.3261 -11.0648 9.9709
27.0591 15.7654 -25.6608 -178.2540 -182.8100 -168.8510 0.0000 0.0000 0.0000 -20.5385 -16.2561 -16.3913 3.2695 11.1190 32.6823 0.9378 10.7182 -25.1032 0.7776 -5.6302 -15.7152 0.0000 0.0000 0.0000 1.8564 34.4549 -28.1904 -3.4386 -11.3733 33.5495 -0.1169 -16.6993 -24.7322 -0.6447 -5.1367 14.2988 3.3383 -0.2354 0.7881 1.9756 0.0777 -9.4250 0.2400 -0.1419 -10.4599 -3.8465 2.5257 -12.7996 3.5039 3.6260 13.8834 2.0676 1.8444 6.1762 0.0000 -0.0000 0.0000 -92.9812 7.3479 52.8190 53.7022 -54.3837 -29.1581 -0.0000 -0.0000 54.4995 -30.9418 43.3733 -22.3765 -7.1250 0.0000 -0.0000 -75.4303 58.0898 -36.4344 0.0000 -0.0000 0.0000 87.9076 -6.9315 53.2426 -54.1856 54.5502 -29.5514 0.0000 0.0000 13.3174 -13.2448 19.2594 -4.4394 7.1250 -0.0000 -0.0000 9.7226 -10.4551 7.9147
27.0525 15.7676 -25.6548 -178.3410 -182.1380 -168.5420 0.0000 0.0000 0.0000 -20.4167 -16.0635 -16.6270 3.2358 11.0674 32.5075 0.8723 11.2533 -25.0544 0.8384 -5.8408 -16.3231 0.0000 0.0000 0.0000 1.6976 34.5991 -28.7793 -3.4144 -11.3374 33.4263 -0.0143 -17.0078 -24.2376 -0.5420 -4.7169 13.1028 3.3750 -0.2117 0.6003 2.0234 0.1078 -9.5122 0.2681 -0.1292 -10.4457 -3.7437 2.6199 -12.5350 3.5528 3.7186 13.6690 2.0648 1.8990 6.0602 -0.0000 0.0000 0.0000 -92.9893 7.4973 52.7306 53.7659 -54.4059 -29.2099 -0.0000 -0.0000 54.0525 -31.1762 43.2941 -22.5341 -7.1250 0.0000 -0.0000 -75.4889 57.9960 -36.3186 -0.0000 0.0000 0.0000 87.9010 -7.0724 52.9378 -54.0817 54.5147 -29.4668 0.0000 0.0000 13.2698 -11.8803 19.6093 -4.0385 7.1250 -0.0000 -0.0000 10.6086 -10.2415 8.7080
27.0474 15.7715 -25.6536 -178.4310 -181.6930 -168.3140 0.0000 0.0000 0.0000 -20.2896 -16.0193 -16.7661 3.2013 11.0140 32.3271 0.8073 11.6646 -24.9072 0.8997 -6.0451 -16.9152 0.0000 0.0000 0.0000 1.6276 34.5971 -29.2147 -3.3909 -11.3025 33.3071 -0.0489 -17.0061 -24.5460 -0.5415 -4.7148 13.0969 3.5417 -0.1518 0.5985 1.9501 0.1817 -9.2644 0.0855 -0.1071 -10.1627 -3.6206 2.5071 -13.7991 3.6403 3.5664 13.7533 2.0865 1.8437 6.3091 -0.0000 -0.0000 0.0000 -92.7258 6.7955 53.2094 53.0212 -54.1436 -28.6053 -0.0000 -0.0000 55.1975 -30.0585 44.6094 -22.1174 -7.1250 0.0000 -0.0000 -76.5555 58.8459 -38.7846 -0.0000 -0.0000 0.0000 88.0707 -6.4581 52.5281 -53.2762 54.2343 -28.8121 0.0000 0.0000 14.6829 -13.3007 19.5742 -4.5285 7.1250 -0.0000 -0.0000 9.6934 -10.1332 7.9545
27.0387 15.7779 -25.6508 -178.3840 -181.1150 -168.3830 0.0000 0.0000 0.0000 -20.4204 -15.7044 -16.5607 3.1615 10.9520 32.1181 0.7751 11.9193 -24.8858 0.9382 -6.1696 -17.2773 0.0000 0.0000 0.0000 1.6284 34.6761 -29.2419 -3.3708 -11.2724 33.2042 -0.2272 -16.5895 -25.5347 -0.6795 -5.2707 14.6822 3.5276 -0.1891 0.8992 1.9109 0.1381 -9.1909 0.0564 -0.1307 -10.2612 -3.5840 2.5192 -13.8354 3.7509 3.5602 13.5398 2.1120 1.8533 6.2459 0.0000 0.0000 0.0000 -92.7956 6.6113 52.3150 53.9296 -54.4624 -29.3430 -0.0000 -0.0000 53.0156 -36.0306 43.6931 -26.6775 -7.1250 0.0000 -0.0000 -79.4849 56.9493 -38.0731 0.0000 0.0000 0.0000 88.0949 -6.4274 52.6586 -53.1684 54.1961 -28.7246 0.0000 0.0000 14.6763 -13.6848 19.7216 -4.6973 7.1250 -0.0000 -0.0000 9.4498 -9.9445 7.7853
27.0295 15.7824 -25.6374 -178.3720 -180.2610 -168.2720 0.0000 0.0000 0.0000 -20.5069 -15.2905 -16.4789 3.1133 10.8762 31.8635 0.7674 12.2210 -25.1151 0.8989 -6.0424 -16.9074 0.0000 0.0000 0.0000 1.5357 34.8837 -29.5435 -3.3565 -11.2509 33.1307 -0.0663 -16.9325 -24.6000 -0.5112 -4.5829 12.7227 3.4829 -0.1364 0.8327 1.9088 0.1970 -9.1074 0.0716 -0.0972 -10.1246 -3.5889 2.5533 -14.0332 3.8513 3.5977 13.4819 2.1510 1.8808 6.2574 0.0000 -0.0000 0.0000 -92.6790 6.8617 53.4046 52.6382 -54.0057 -28.2951 -0.0000 -0.0000 56.3190 -26.3167 45.4915 -19.4286 -7.1250 0.0000 -0.0000 -75.1598 60.2175 -39.8372 0.0000 -0.0000 0.0000 88.0508 -6.3469 52.8051 -54.4843 54.6514 -29.7949 0.0000 0.0000 12.2108 -10.3558 20.1509 -3.6021 7.1250 -0.0000 -0.0000 11.5907 -9.8491 9.6420
27.0226 15.7854 -25.6261 -178.3250 -179.4530 -167.9510 0.0000 0.0000 0.0000 -20.5720 -15.0596 -16.6011 3.0622 10.7950 31.5917 0.7592 12.4784 -25.2995 0.8089 -5.7397 -16.0309 0.0000 0.0000 0.0000 1.2471 35.0170 -30.1700 -3.3497 -11.2408 33.0962 0.0430 -17.1698 -23.9407 -0.3732 -3.9239 10.8627 3.4077 -0.0771 0.6050 1.9423 0.2615 -9.1197 0.1423 -0.0575 -9.9996 -3.7050 2.5759 -14.0856 3.9463 3.6406 13.3378 2.2021 1.9047 6.2145 -0.0000 -0.0000 0.0000 -92.8516 6.7874 52.7042 53.3540 -54.2618 -28.8752 -0.0000 -0.0000 54.7541 -31.0513 44.5967 -22.9151 -7.1250 0.0000 -0.0000 -77.2481 58.5811 -38.9588 -0.0000 -0.0000 0.0000 87.9037 -6.3082 52.6699 -54.9492 54.8065 -30.1744 0.0000 0.0000 11.1154 -7.7203 20.6014 -2.7310 7.1250 -0.0000 -0.0000 13.2633 -9.6381 11.1670
27.0145 15.7883 -25.6212 -178.2430 -178.8160 -167.7840 0.0000 0.0000 0.0000 -20.6923 -14.8773 -16.5918 3.0146 10.7186 31.3366 0.7592 12.5693 -25.3893 0.6973 -5.3377 -14.8743 0.0000 0.0000 0.0000 1.0143 35.1397 -30.5982 -3.3505 -11.2419 33.1001 0.0610 -17.1660 -23.7688 -0.3479 -3.7897 10.4858 3.3174 -0.1577 0.5942 2.0151 0.1470 -9.0291 0.2794 -0.1018 -9.8934 -3.8274 2.6398 -14.2608 4.0026 3.7528 13.0358 2.2474 1.9602 6.1398 -0.0000 0.0000 0.0000 -92.9133 6.7412 52.5762 53.2828 -54.2367 -28.8174 -0.0000 -0.0000 55.4792 -29.7771 44.7799 -21.9510 -7.1250 0.0000 -0.0000 -76.6011 58.9910 -39.0788 -0.0000 0.0000 0.0000 87.6916 -5.9792 52.8834 -55.1225 54.8636 -30.3162 0.0000 0.0000 10.6873 -8.0746 20.5040 -2.8448 7.1250 -0.0000 -0.0000 13.0400 -9.7038 10.9506
27.0036 15.7904 -25.6168 -178.1650 -178.3140 -167.6680 0.0000 0.0000 0.0000 -20.7923 -14.7938 -16.5303 2.9682 10.6434 31.0864 0.7567 12.6650 -25.4635 0.5801 -4.8772 -13.5586 0.0000 0.0000 0.0000 0.8803 35.0889 -30.9464 -3.3541 -11.2473 33.1185 -0.0636 -16.6009 -24.1253 -0.4777 -4.4323 12.2962 3.2755 -0.2612 0.6352 2.0100 0.0018 -8.9637 0.3098 -0.1699 -9.8467 -3.5654 2.6935 -14.5358 3.7845 3.8134 12.9726 2.1453 1.9862 6.1737 -0.0000 0.0000 0.0000 -92.8107 6.7603 52.3525 53.2840 -54.2371 -28.8184 -0.0000 -0.0000 55.6869 -29.0783 44.7187 -21.3697 -7.1250 0.0000 -0.0000 -76.0086 59.1497 -38.8111 -0.0000 0.0000 0.0000 87.6510 -5.8103 53.1114 -54.9594 54.8099 -30.1828 0.0000 0.0000 11.0664 -10.9302 20.6451 -3.8952 7.1250 -0.0000 -0.0000 11.2303 -9.3046 9.4552
26.9927 15.7918 -25.6118 -177.9960 -177.8400 -167.5570 0.0000 0.0000 0.0000 -20.9861 -14.7768 -16.4315 2.9210 10.5660 30.8299 0.7612 12.8137 -25.6466 0.4685 -4.3902 -12.1770 0.0000 0.0000 0.0000 0.7047 34.8515 -31.3140 -3.3597 -11.2557 33.1473 -0.2182 -15.9265 -24.6146 -0.6805 -5.2746 14.6934 3.1723 -0.2619 0.8357 1.8795 -0.0031 -9.1011 0.2332 -0.1744 -10.1204 -2.9608 2.6609 -14.7445 3.3092 3.7164 13.3930 1.8994 1.9279 6.3691 -0.0000 -0.0000 0.0000 -92.6393 7.1866 52.3247 53.4320 -54.2893 -28.9385 -0.0000 -0.0000 55.7211 -28.9379 44.7443 -21.2663 -7.1250 0.0000 -0.0000 -75.9447 59.1976 -38.8354 -0.0000 -0.0000 0.0000 87.7342 -6.2056 53.0427 -55.3048 54.9231 -30.4653 0.0000 0.0000 10.9920 -11.8882 20.8286 -4.2809 7.1250 -0.0000 -0.0000 10.6249 -9.0256 8.9867
